<?xml version="1.0" encoding="UTF-8" standalone="no"?>
<svg
   xmlns:dc="http://purl.org/dc/elements/1.1/"
   xmlns:cc="http://creativecommons.org/ns#"
   xmlns:rdf="http://www.w3.org/1999/02/22-rdf-syntax-ns#"
   xmlns:svg="http://www.w3.org/2000/svg"
   xmlns="http://www.w3.org/2000/svg"
   xmlns:sodipodi="http://sodipodi.sourceforge.net/DTD/sodipodi-0.dtd"
   xmlns:inkscape="http://www.inkscape.org/namespaces/inkscape"
   width="80"
   height="80"
   viewBox="0 0 80 80.000003"
   version="1.1"
   id="svg8"
   inkscape:version="1.0.1 (3bc2e813f5, 2020-09-07)"
   sodipodi:docname="archive-inv.svg">
  <defs
     id="defs2" />
  <sodipodi:namedview
     id="base"
     pagecolor="#ffffff"
     bordercolor="#666666"
     borderopacity="1.0"
     inkscape:pageopacity="0.0"
     inkscape:pageshadow="2"
     inkscape:zoom="0.7"
     inkscape:cx="-9.0098192"
     inkscape:cy="320.33506"
     inkscape:document-units="px"
     inkscape:current-layer="layer1"
     inkscape:document-rotation="0"
     showgrid="true"
     units="px"
     inkscape:snap-object-midpoints="true"
     inkscape:snap-global="true"
     inkscape:window-width="1920"
     inkscape:window-height="1001"
     inkscape:window-x="-9"
     inkscape:window-y="-9"
     inkscape:window-maximized="1"
     inkscape:snap-smooth-nodes="true"
     showguides="false"
     inkscape:snap-page="true">
    <inkscape:grid
       type="xygrid"
       id="grid833" />
  </sodipodi:namedview>
  <metadata
     id="metadata5">
    <rdf:RDF>
      <cc:Work
         rdf:about="">
        <dc:format>image/svg+xml</dc:format>
        <dc:type
           rdf:resource="http://purl.org/dc/dcmitype/StillImage" />
        <dc:title />
      </cc:Work>
    </rdf:RDF>
  </metadata>
  <g
     inkscape:label="Ebene 1"
     inkscape:groupmode="layer"
     id="layer1">
    <path
       id="rect1440"
       style="opacity:1;fill:#ffffff;fill-opacity:1;stroke:none;stroke-width:10;stroke-linejoin:round;stroke-miterlimit:4;stroke-dasharray:none;paint-order:markers fill stroke"
       d="M 19.511719 0 L 19.511719 80 L 21.464844 80 L 21.464844 0 L 19.511719 0 z M 39.025391 0 L 39.025391 80 L 40.974609 80 L 40.974609 0 L 39.025391 0 z M 58.535156 0 L 58.535156 80 L 60.488281 80 L 60.488281 0 L 58.535156 0 z M 78.046875 2.7617188 L 78.046875 77.238281 C 79.261704 75.836094 80 74.009376 80 72 L 80 8 C 80 5.9906236 79.261704 4.1639055 78.046875 2.7617188 z M 1.9511719 2.7636719 C 0.73742187 4.1655892 2.2438372e-17 5.9916195 0 8 L 0 72 C 0 74.008381 0.73742187 75.834411 1.9511719 77.236328 L 1.9511719 2.7636719 z M 5.8535156 14.634766 C 5.3130214 14.634766 4.8769531 15.068881 4.8769531 15.609375 L 4.8769531 51.707031 C 4.8769531 52.247526 5.3130214 52.681641 5.8535156 52.681641 L 15.609375 52.681641 C 16.149869 52.681641 16.585937 52.247526 16.585938 51.707031 L 16.585938 15.609375 C 16.585938 15.068881 16.149869 14.634766 15.609375 14.634766 L 5.8535156 14.634766 z M 25.365234 14.634766 C 24.82474 14.634766 24.390625 15.068881 24.390625 15.609375 L 24.390625 51.707031 C 24.390625 52.247526 24.82474 52.681641 25.365234 52.681641 L 35.121094 52.681641 C 35.661588 52.681641 36.095703 52.247526 36.095703 51.707031 L 36.095703 15.609375 C 36.095703 15.068881 35.661588 14.634766 35.121094 14.634766 L 25.365234 14.634766 z M 44.878906 14.634766 C 44.338412 14.634766 43.904297 15.068881 43.904297 15.609375 L 43.904297 51.707031 C 43.904297 52.247526 44.338412 52.681641 44.878906 52.681641 L 54.634766 52.681641 C 55.17526 52.681641 55.609375 52.247526 55.609375 51.707031 L 55.609375 15.609375 C 55.609375 15.068881 55.17526 14.634766 54.634766 14.634766 L 44.878906 14.634766 z M 64.390625 14.634766 C 63.850131 14.634766 63.414062 15.068881 63.414062 15.609375 L 63.414062 51.707031 C 63.414062 52.247526 63.850131 52.681641 64.390625 52.681641 L 74.146484 52.681641 C 74.416732 52.681641 74.661607 52.574722 74.837891 52.398438 C 75.014639 52.222153 75.123047 51.977279 75.123047 51.707031 L 75.123047 15.609375 C 75.123047 15.339128 75.014639 15.094253 74.837891 14.917969 C 74.661143 14.741685 74.416732 14.634766 74.146484 14.634766 L 64.390625 14.634766 z M 7.8046875 19.513672 L 13.658203 19.513672 C 14.198698 19.513672 14.634766 19.947788 14.634766 20.488281 C 14.634766 21.028776 14.198698 21.464844 13.658203 21.464844 L 7.8046875 21.464844 C 7.2641933 21.464844 6.8300782 21.028776 6.8300781 20.488281 C 6.8300782 19.947787 7.2641933 19.513672 7.8046875 19.513672 z M 27.316406 19.513672 L 33.169922 19.513672 C 33.710418 19.513672 34.146484 19.947788 34.146484 20.488281 C 34.146484 21.028776 33.710417 21.464844 33.169922 21.464844 L 27.316406 21.464844 C 26.775912 21.464844 26.341797 21.028776 26.341797 20.488281 C 26.341797 19.947787 26.775912 19.513672 27.316406 19.513672 z M 46.830078 19.513672 L 52.683594 19.513672 C 53.224088 19.513672 53.658203 19.947788 53.658203 20.488281 C 53.658203 21.028776 53.224088 21.464844 52.683594 21.464844 L 46.830078 21.464844 C 46.289584 21.464844 45.853516 21.028776 45.853516 20.488281 C 45.853516 19.947787 46.289584 19.513672 46.830078 19.513672 z M 66.341797 19.513672 L 72.195312 19.513672 C 72.735806 19.513672 73.169922 19.947788 73.169922 20.488281 C 73.169922 21.028776 72.735807 21.464844 72.195312 21.464844 L 66.341797 21.464844 C 65.801303 21.464844 65.365234 21.028776 65.365234 20.488281 C 65.365234 19.947787 65.801303 19.513672 66.341797 19.513672 z M 7.8046875 23.414062 L 13.658203 23.414062 C 14.198698 23.414062 14.634766 23.85013 14.634766 24.390625 C 14.634766 24.931119 14.198698 25.365234 13.658203 25.365234 L 7.8046875 25.365234 C 7.2641933 25.365234 6.8300782 24.931119 6.8300781 24.390625 C 6.8300782 23.85013 7.2641933 23.414063 7.8046875 23.414062 z M 27.316406 23.414062 L 33.169922 23.414062 C 33.710418 23.414062 34.146484 23.85013 34.146484 24.390625 C 34.146484 24.931119 33.710417 25.365234 33.169922 25.365234 L 27.316406 25.365234 C 26.775912 25.365234 26.341797 24.931119 26.341797 24.390625 C 26.341797 23.85013 26.775912 23.414063 27.316406 23.414062 z M 46.830078 23.414062 L 52.683594 23.414062 C 53.224088 23.414062 53.658203 23.85013 53.658203 24.390625 C 53.658203 24.931119 53.224088 25.365234 52.683594 25.365234 L 46.830078 25.365234 C 46.289584 25.365234 45.853516 24.931119 45.853516 24.390625 C 45.853516 23.85013 46.289584 23.414063 46.830078 23.414062 z M 66.341797 23.414062 L 72.195312 23.414062 C 72.735806 23.414062 73.169922 23.85013 73.169922 24.390625 C 73.169922 24.931119 72.735807 25.365234 72.195312 25.365234 L 66.341797 25.365234 C 65.801303 25.365234 65.365234 24.931119 65.365234 24.390625 C 65.365234 23.85013 65.801303 23.414063 66.341797 23.414062 z M 7.8046875 27.318359 L 13.658203 27.318359 C 14.198698 27.318359 14.634766 27.752474 14.634766 28.292969 C 14.634766 28.833463 14.198698 29.269531 13.658203 29.269531 L 7.8046875 29.269531 C 7.2641933 29.269531 6.8300782 28.833463 6.8300781 28.292969 C 6.8300782 27.752474 7.2641933 27.318359 7.8046875 27.318359 z M 27.316406 27.318359 L 33.169922 27.318359 C 33.710418 27.318359 34.146484 27.752474 34.146484 28.292969 C 34.146484 28.833463 33.710417 29.269531 33.169922 29.269531 L 27.316406 29.269531 C 26.775912 29.269531 26.341797 28.833463 26.341797 28.292969 C 26.341797 27.752474 26.775912 27.318359 27.316406 27.318359 z M 46.830078 27.318359 L 52.683594 27.318359 C 53.224088 27.318359 53.658203 27.752474 53.658203 28.292969 C 53.658203 28.833463 53.224088 29.269531 52.683594 29.269531 L 46.830078 29.269531 C 46.289584 29.269531 45.853516 28.833463 45.853516 28.292969 C 45.853516 27.752474 46.289584 27.318359 46.830078 27.318359 z M 66.341797 27.318359 L 72.195312 27.318359 C 72.735806 27.318359 73.169922 27.752474 73.169922 28.292969 C 73.169922 28.833463 72.735807 29.269531 72.195312 29.269531 L 66.341797 29.269531 C 65.801303 29.269531 65.365234 28.833463 65.365234 28.292969 C 65.365234 27.752474 65.801303 27.318359 66.341797 27.318359 z M 10.671875 58.535156 C 8.5396953 58.567426 6.829834 60.307031 6.8300781 62.439453 C 6.8300782 64.594737 8.5751854 66.341797 10.730469 66.341797 C 12.885752 66.341797 14.634766 64.594737 14.634766 62.439453 C 14.634766 60.284172 12.885752 58.535156 10.730469 58.535156 C 10.710779 58.535007 10.691565 58.535007 10.671875 58.535156 z M 30.185547 58.535156 C 28.053368 58.567426 26.341552 60.307031 26.341797 62.439453 C 26.341797 64.594737 28.088857 66.341797 30.244141 66.341797 C 32.399424 66.341797 34.146484 64.594737 34.146484 62.439453 C 34.146484 60.284172 32.399424 58.535156 30.244141 58.535156 C 30.224451 58.535007 30.205237 58.535007 30.185547 58.535156 z M 49.695312 58.535156 C 47.563133 58.567426 45.853272 60.307031 45.853516 62.439453 C 45.853516 64.594737 47.600575 66.341797 49.755859 66.341797 C 51.911142 66.341797 53.658203 64.594737 53.658203 62.439453 C 53.658203 60.284172 51.911142 58.535156 49.755859 58.535156 C 49.736169 58.535007 49.715002 58.535007 49.695312 58.535156 z M 69.207031 58.535156 C 68.407464 58.547256 67.667616 58.799847 67.054688 59.222656 C 66.033256 59.927431 65.365081 61.1072 65.365234 62.439453 C 65.365234 63.786506 66.047605 64.972802 67.085938 65.673828 C 67.293494 65.814034 67.514648 65.936463 67.748047 66.035156 C 67.748047 66.035156 67.75 66.035156 67.75 66.035156 C 67.982913 66.133516 68.22704 66.20988 68.480469 66.261719 C 68.735082 66.313909 68.999498 66.341797 69.269531 66.341797 C 71.423946 66.340797 73.169922 64.594107 73.169922 62.439453 C 73.169922 62.170044 73.141844 61.908364 73.089844 61.654297 C 72.829931 60.383374 71.954911 59.335418 70.787109 58.841797 C 70.554163 58.743247 70.308126 58.667236 70.054688 58.615234 C 70.054688 58.615234 70.052734 58.615234 70.052734 58.615234 C 69.799261 58.563344 69.538281 58.535276 69.269531 58.535156 C 69.269531 58.535156 69.267578 58.535156 69.267578 58.535156 C 69.247888 58.535007 69.226721 58.535007 69.207031 58.535156 z " />
  </g>
</svg>
