<?xml version="1.0" encoding="UTF-8" standalone="no"?>
<svg
   xmlns:dc="http://purl.org/dc/elements/1.1/"
   xmlns:cc="http://creativecommons.org/ns#"
   xmlns:rdf="http://www.w3.org/1999/02/22-rdf-syntax-ns#"
   xmlns:svg="http://www.w3.org/2000/svg"
   xmlns="http://www.w3.org/2000/svg"
   xmlns:sodipodi="http://sodipodi.sourceforge.net/DTD/sodipodi-0.dtd"
   xmlns:inkscape="http://www.inkscape.org/namespaces/inkscape"
   width="80"
   height="80"
   viewBox="0 0 80 80.000003"
   version="1.1"
   id="svg8"
   inkscape:version="1.0.1 (3bc2e813f5, 2020-09-07)"
   sodipodi:docname="archive.svg">
  <defs
     id="defs2" />
  <sodipodi:namedview
     id="base"
     pagecolor="#ffffff"
     bordercolor="#666666"
     borderopacity="1.0"
     inkscape:pageopacity="0.0"
     inkscape:pageshadow="2"
     inkscape:zoom="0.49497475"
     inkscape:cx="-401.94005"
     inkscape:cy="280.10874"
     inkscape:document-units="px"
     inkscape:current-layer="layer1"
     inkscape:document-rotation="0"
     showgrid="true"
     units="px"
     inkscape:snap-object-midpoints="true"
     inkscape:snap-global="true"
     inkscape:window-width="1920"
     inkscape:window-height="1001"
     inkscape:window-x="-9"
     inkscape:window-y="-9"
     inkscape:window-maximized="1"
     inkscape:snap-smooth-nodes="true"
     showguides="false"
     inkscape:snap-page="true">
    <inkscape:grid
       type="xygrid"
       id="grid833" />
  </sodipodi:namedview>
  <metadata
     id="metadata5">
    <rdf:RDF>
      <cc:Work
         rdf:about="">
        <dc:format>image/svg+xml</dc:format>
        <dc:type
           rdf:resource="http://purl.org/dc/dcmitype/StillImage" />
        <dc:title />
      </cc:Work>
    </rdf:RDF>
  </metadata>
  <g
     inkscape:label="Ebene 1"
     inkscape:groupmode="layer"
     id="layer1">
    <path
       id="rect1241"
       style="fill:#ffffff;fill-opacity:1;stroke:none;stroke-width:10;stroke-linejoin:round;stroke-miterlimit:4;stroke-dasharray:none;paint-order:markers fill stroke"
       d="M 8 0 C 3.568 0 4.9515947e-17 3.568 0 8 L 0 72 C 0 76.432 3.568 80 8 80 L 18.460938 80 L 18.460938 0 L 8 0 z M 20.513672 0 L 20.513672 80 L 38.974609 80 L 38.974609 0 L 20.513672 0 z M 41.025391 0 L 41.025391 80 L 59.486328 80 L 59.486328 0 L 41.025391 0 z M 61.539062 0 L 61.539062 80 L 72 80 C 76.432 80 80 76.432 80 72 L 80 8 C 80 3.568 76.432 4.9515947e-17 72 0 L 61.539062 0 z M 4.1035156 15.384766 L 14.359375 15.384766 C 14.92758 15.384766 15.384766 15.841951 15.384766 16.410156 L 15.384766 50.255859 C 15.384766 50.824064 14.92758 51.28125 14.359375 51.28125 L 4.1035156 51.28125 C 3.5353105 51.28125 3.0761719 50.824064 3.0761719 50.255859 L 3.0761719 16.410156 C 3.0761719 15.841951 3.5353105 15.384766 4.1035156 15.384766 z M 24.615234 15.384766 L 34.871094 15.384766 C 35.439299 15.384766 35.896484 15.841951 35.896484 16.410156 L 35.896484 50.255859 C 35.896484 50.824064 35.439299 51.28125 34.871094 51.28125 L 24.615234 51.28125 C 24.047029 51.28125 23.589844 50.824064 23.589844 50.255859 L 23.589844 16.410156 C 23.589844 15.841951 24.047029 15.384766 24.615234 15.384766 z M 45.128906 15.384766 L 55.384766 15.384766 C 55.952971 15.384766 56.410156 15.841951 56.410156 16.410156 L 56.410156 50.255859 C 56.410156 50.824064 55.952971 51.28125 55.384766 51.28125 L 45.128906 51.28125 C 44.560701 51.28125 44.103516 50.824064 44.103516 50.255859 L 44.103516 16.410156 C 44.103516 15.841951 44.560701 15.384766 45.128906 15.384766 z M 65.640625 15.384766 L 75.896484 15.384766 C 76.464689 15.384766 76.923828 15.841951 76.923828 16.410156 L 76.923828 50.255859 C 76.923828 50.824064 76.464689 51.28125 75.896484 51.28125 L 65.640625 51.28125 C 65.07242 51.28125 64.615234 50.824064 64.615234 50.255859 L 64.615234 16.410156 C 64.615234 15.841951 65.07242 15.384766 65.640625 15.384766 z M 6.1542969 20.513672 C 5.5860918 20.513672 5.1289063 20.970857 5.1289062 21.539062 C 5.1289062 22.107267 5.5860918 22.564453 6.1542969 22.564453 L 12.308594 22.564453 C 12.876799 22.564453 13.333984 22.107268 13.333984 21.539062 C 13.333984 20.970858 12.876799 20.513672 12.308594 20.513672 L 6.1542969 20.513672 z M 26.666016 20.513672 C 26.097811 20.513672 25.640625 20.970857 25.640625 21.539062 C 25.640625 22.107267 26.097811 22.564453 26.666016 22.564453 L 32.820312 22.564453 C 33.388517 22.564453 33.845703 22.107268 33.845703 21.539062 C 33.845703 20.970858 33.388518 20.513672 32.820312 20.513672 L 26.666016 20.513672 z M 47.179688 20.513672 C 46.611483 20.513672 46.154297 20.970857 46.154297 21.539062 C 46.154297 22.107267 46.611483 22.564453 47.179688 22.564453 L 53.333984 22.564453 C 53.902189 22.564453 54.359375 22.107268 54.359375 21.539062 C 54.359375 20.970858 53.902189 20.513672 53.333984 20.513672 L 47.179688 20.513672 z M 67.691406 20.513672 C 67.123201 20.513672 66.666016 20.970857 66.666016 21.539062 C 66.666016 22.107267 67.123201 22.564453 67.691406 22.564453 L 73.845703 22.564453 C 74.413908 22.564453 74.871094 22.107268 74.871094 21.539062 C 74.871094 20.970858 74.413908 20.513672 73.845703 20.513672 L 67.691406 20.513672 z M 6.1542969 24.615234 C 5.5860918 24.615234 5.1289063 25.07242 5.1289062 25.640625 C 5.1289062 26.20883 5.5860918 26.666016 6.1542969 26.666016 L 12.308594 26.666016 C 12.876799 26.666016 13.333984 26.20883 13.333984 25.640625 C 13.333984 25.07242 12.876799 24.615234 12.308594 24.615234 L 6.1542969 24.615234 z M 26.666016 24.615234 C 26.097811 24.615234 25.640625 25.07242 25.640625 25.640625 C 25.640625 26.20883 26.097811 26.666016 26.666016 26.666016 L 32.820312 26.666016 C 33.388517 26.666016 33.845703 26.20883 33.845703 25.640625 C 33.845703 25.07242 33.388518 24.615234 32.820312 24.615234 L 26.666016 24.615234 z M 47.179688 24.615234 C 46.611483 24.615234 46.154297 25.07242 46.154297 25.640625 C 46.154297 26.20883 46.611483 26.666016 47.179688 26.666016 L 53.333984 26.666016 C 53.902189 26.666016 54.359375 26.20883 54.359375 25.640625 C 54.359375 25.07242 53.902189 24.615234 53.333984 24.615234 L 47.179688 24.615234 z M 67.691406 24.615234 C 67.123201 24.615234 66.666016 25.07242 66.666016 25.640625 C 66.666016 26.20883 67.123201 26.666016 67.691406 26.666016 L 73.845703 26.666016 C 74.413908 26.666016 74.871094 26.20883 74.871094 25.640625 C 74.871094 25.07242 74.413908 24.615234 73.845703 24.615234 L 67.691406 24.615234 z M 6.1542969 28.71875 C 5.5860918 28.71875 5.1289063 29.175936 5.1289062 29.744141 C 5.1289062 30.312346 5.5860918 30.769531 6.1542969 30.769531 L 12.308594 30.769531 C 12.876799 30.769531 13.333984 30.312346 13.333984 29.744141 C 13.333984 29.175936 12.876799 28.71875 12.308594 28.71875 L 6.1542969 28.71875 z M 26.666016 28.71875 C 26.097811 28.71875 25.640625 29.175936 25.640625 29.744141 C 25.640625 30.312346 26.097811 30.769531 26.666016 30.769531 L 32.820312 30.769531 C 33.388517 30.769531 33.845703 30.312346 33.845703 29.744141 C 33.845703 29.175936 33.388518 28.71875 32.820312 28.71875 L 26.666016 28.71875 z M 47.179688 28.71875 C 46.611483 28.71875 46.154297 29.175936 46.154297 29.744141 C 46.154297 30.312346 46.611483 30.769531 47.179688 30.769531 L 53.333984 30.769531 C 53.902189 30.769531 54.359375 30.312346 54.359375 29.744141 C 54.359375 29.175936 53.902189 28.71875 53.333984 28.71875 L 47.179688 28.71875 z M 67.691406 28.71875 C 67.123201 28.71875 66.666016 29.175936 66.666016 29.744141 C 66.666016 30.312346 67.123201 30.769531 67.691406 30.769531 L 73.845703 30.769531 C 74.413908 30.769531 74.871094 30.312346 74.871094 29.744141 C 74.871094 29.175936 74.413908 28.71875 73.845703 28.71875 L 67.691406 28.71875 z M 9.1679688 57.435547 C 9.1886677 57.43539 9.2097697 57.43539 9.2304688 57.435547 C 11.496252 57.435547 13.333984 59.273279 13.333984 61.539062 C 13.333984 63.804846 11.496252 65.640625 9.2304688 65.640625 C 6.9646852 65.640625 5.1289063 63.804846 5.1289062 61.539062 C 5.1286495 59.297311 6.9264733 57.46948 9.1679688 57.435547 z M 29.681641 57.435547 C 29.702341 57.43539 29.723441 57.43539 29.744141 57.435547 C 32.009925 57.435547 33.845703 59.273279 33.845703 61.539062 C 33.845703 63.804846 32.009925 65.640625 29.744141 65.640625 C 27.478357 65.640625 25.640625 63.804846 25.640625 61.539062 C 25.640368 59.297311 27.440146 57.46948 29.681641 57.435547 z M 50.193359 57.435547 C 50.214059 57.43539 50.235159 57.43539 50.255859 57.435547 C 52.521643 57.435547 54.359375 59.273279 54.359375 61.539062 C 54.359375 63.804846 52.521643 65.640625 50.255859 65.640625 C 47.990075 65.640625 46.154297 63.804846 46.154297 61.539062 C 46.15404 59.297311 47.951864 57.46948 50.193359 57.435547 z M 70.707031 57.435547 C 70.727731 57.43539 70.748831 57.43539 70.769531 57.435547 C 73.035315 57.435547 74.871094 59.273279 74.871094 61.539062 C 74.871094 63.804846 73.035315 65.640625 70.769531 65.640625 C 68.503747 65.640625 66.666016 63.804846 66.666016 61.539062 C 66.665759 59.297311 68.465536 57.46948 70.707031 57.435547 z " />
  </g>
</svg>
