<?xml version="1.0" encoding="UTF-8" standalone="no"?>
<svg
   xmlns:dc="http://purl.org/dc/elements/1.1/"
   xmlns:cc="http://creativecommons.org/ns#"
   xmlns:rdf="http://www.w3.org/1999/02/22-rdf-syntax-ns#"
   xmlns:svg="http://www.w3.org/2000/svg"
   xmlns="http://www.w3.org/2000/svg"
   xmlns:sodipodi="http://sodipodi.sourceforge.net/DTD/sodipodi-0.dtd"
   xmlns:inkscape="http://www.inkscape.org/namespaces/inkscape"
   width="80"
   height="80"
   viewBox="0 0 80 80.000003"
   version="1.1"
   id="svg8"
   inkscape:version="1.0.1 (3bc2e813f5, 2020-09-07)"
   sodipodi:docname="candidates.svg">
  <defs
     id="defs2" />
  <sodipodi:namedview
     id="base"
     pagecolor="#ffffff"
     bordercolor="#666666"
     borderopacity="1.0"
     inkscape:pageopacity="0.0"
     inkscape:pageshadow="2"
     inkscape:zoom="5.6"
     inkscape:cx="95.14018"
     inkscape:cy="88.838879"
     inkscape:document-units="px"
     inkscape:current-layer="layer1"
     inkscape:document-rotation="0"
     showgrid="true"
     units="px"
     inkscape:snap-object-midpoints="true"
     inkscape:snap-global="true"
     inkscape:window-width="1920"
     inkscape:window-height="1001"
     inkscape:window-x="-9"
     inkscape:window-y="-9"
     inkscape:window-maximized="1"
     inkscape:snap-smooth-nodes="true"
     showguides="false"
     inkscape:snap-page="true">
    <inkscape:grid
       type="xygrid"
       id="grid833" />
  </sodipodi:namedview>
  <metadata
     id="metadata5">
    <rdf:RDF>
      <cc:Work
         rdf:about="">
        <dc:format>image/svg+xml</dc:format>
        <dc:type
           rdf:resource="http://purl.org/dc/dcmitype/StillImage" />
        <dc:title></dc:title>
      </cc:Work>
    </rdf:RDF>
  </metadata>
  <g
     inkscape:label="Ebene 1"
     inkscape:groupmode="layer"
     id="layer1">
    <path
       id="rect1191"
       style="opacity:1;fill:#ffffff;fill-opacity:1;stroke:none;stroke-width:10;stroke-linejoin:round;stroke-miterlimit:4;stroke-dasharray:none;paint-order:markers fill stroke"
       d="M 39.927734 0.48046875 C 34.654134 0.52028975 30.40024 4.8063287 30.400391 10.080078 C 30.400391 15.382012 34.698066 19.679688 40 19.679688 C 45.301934 19.679688 49.599609 15.382012 49.599609 10.080078 C 49.599609 4.7781456 45.301934 0.48046875 40 0.48046875 C 39.97583 0.48037795 39.951904 0.48037795 39.927734 0.48046875 z M 30.400391 19.679688 C 26.597995 19.679688 23.333994 21.873145 21.777344 25.064453 C 27.588109 26.267762 32 31.449931 32 37.599609 C 32 39.991709 31.290713 42.212373 30.132812 44.134766 C 34.375597 44.586115 38.017058 47.115072 40 50.677734 C 41.98294 47.115072 45.624403 44.586115 49.867188 44.134766 C 48.709286 42.212373 48 39.991709 48 37.599609 C 47.999824 31.453249 52.40776 26.268078 58.222656 25.064453 C 56.666005 21.873145 53.402005 19.679687 49.599609 19.679688 L 48.466797 19.679688 C 46.128583 21.741795 43.117613 22.880822 40 22.880859 C 36.882816 22.880517 33.873044 21.74151 31.535156 19.679688 L 30.400391 19.679688 z M 19.126953 28 C 13.853568 28.03991 9.5996734 32.326073 9.5996094 37.599609 C 9.5998254 42.901238 13.89759 47.199003 19.199219 47.199219 C 24.50161 47.200082 28.800566 42.902 28.800781 37.599609 C 28.800565 32.297218 24.50161 27.999137 19.199219 28 C 19.175129 27.999909 19.151043 27.999909 19.126953 28 z M 60.726562 28 C 55.453178 28.03991 51.199283 32.326073 51.199219 37.599609 C 51.199434 42.902 55.49839 47.200082 60.800781 47.199219 C 66.10241 47.199004 70.400176 42.901238 70.400391 37.599609 C 70.400175 32.29798 66.10241 28.000215 60.800781 28 C 60.776041 27.999904 60.751302 27.999904 60.726562 28 z M 9.5996094 47.199219 C 4.2812098 47.199219 -1.1842379e-15 51.482381 0 56.800781 L 0 72 C 0 76.432 3.568 80 8 80 L 38.400391 80 L 38.400391 56.800781 C 38.400391 51.482381 34.119181 47.199219 28.800781 47.199219 L 27.666016 47.199219 C 25.327801 49.261327 22.316832 50.400353 19.199219 50.400391 C 16.082035 50.400049 13.072261 49.261042 10.734375 47.199219 L 9.5996094 47.199219 z M 51.199219 47.199219 C 45.880819 47.199219 41.599609 51.482381 41.599609 56.800781 L 41.599609 80 L 72 80 C 76.432 80 80 76.432 80 72 L 80 56.800781 C 80 51.482381 75.718791 47.199219 70.400391 47.199219 L 69.265625 47.199219 C 66.92741 49.261327 63.918394 50.400353 60.800781 50.400391 C 57.683597 50.400049 54.673825 49.261042 52.335938 47.199219 L 51.199219 47.199219 z M 27.939453 51.755859 C 28.539523 51.755859 29.340419 53.443201 29.904297 53.648438 C 30.468182 53.853673 32.167266 53.075221 32.626953 53.460938 C 33.086633 53.846657 32.614053 55.654153 32.914062 56.173828 C 33.214101 56.693504 35.014942 57.188343 35.119141 57.779297 C 35.223346 58.37025 33.701855 59.452013 33.597656 60.042969 C 33.493452 60.633922 34.551991 62.169776 34.251953 62.689453 C 33.951921 63.209129 32.090539 63.059595 31.630859 63.445312 C 31.171179 63.83103 30.995519 65.691247 30.431641 65.896484 C 29.867756 66.10172 28.539523 64.789064 27.939453 64.789062 C 27.339382 64.789062 26.009192 66.101719 25.445312 65.896484 C 24.881428 65.691247 24.707733 63.831032 24.248047 63.445312 C 23.788367 63.059596 21.926985 63.209129 21.626953 62.689453 C 21.326914 62.169778 22.387408 60.633922 22.283203 60.042969 C 22.178998 59.452013 20.655567 58.37025 20.759766 57.779297 C 20.863971 57.188343 22.662853 56.693503 22.962891 56.173828 C 23.26293 55.65415 22.79422 53.846655 23.253906 53.460938 C 23.713586 53.075221 25.410725 53.853673 25.974609 53.648438 C 26.538488 53.443202 27.339382 51.755859 27.939453 51.755859 z M 69.539062 51.755859 C 70.139133 51.755859 70.940028 53.443201 71.503906 53.648438 C 72.067791 53.853673 73.766875 53.075221 74.226562 53.460938 C 74.686244 53.846657 74.215612 55.654153 74.515625 56.173828 C 74.815664 56.693504 76.616504 57.188343 76.720703 57.779297 C 76.824895 58.37025 75.301465 59.452013 75.197266 60.042969 C 75.093062 60.633922 76.151601 62.169776 75.851562 62.689453 C 75.55153 63.209129 73.690149 63.059595 73.230469 63.445312 C 72.770789 63.83103 72.597081 65.691247 72.033203 65.896484 C 71.469318 66.10172 70.139133 64.789064 69.539062 64.789062 C 68.938992 64.789062 67.610753 66.101719 67.046875 65.896484 C 66.48299 65.691247 66.307342 63.831032 65.847656 63.445312 C 65.387976 63.059596 63.526594 63.209129 63.226562 62.689453 C 62.926524 62.169778 63.987018 60.633922 63.882812 60.042969 C 63.778607 59.452013 62.255176 58.37025 62.359375 57.779297 C 62.46358 57.188343 64.264415 56.693503 64.564453 56.173828 C 64.864492 55.65415 64.39383 53.846655 64.853516 53.460938 C 65.313196 53.075221 67.010335 53.853673 67.574219 53.648438 C 68.138098 53.443202 68.938992 51.755859 69.539062 51.755859 z M 27.939453 54.369141 C 27.554269 54.369141 27.041646 55.454194 26.679688 55.585938 C 26.317729 55.71768 25.226707 55.217249 24.931641 55.464844 C 24.636569 55.712437 24.938641 56.873449 24.746094 57.207031 C 24.553505 57.540613 23.398924 57.858945 23.332031 58.238281 C 23.265151 58.617617 24.239754 59.31207 24.306641 59.691406 C 24.373531 60.07074 23.69413 61.057043 23.886719 61.390625 C 24.079314 61.724207 25.275241 61.627406 25.570312 61.875 C 25.865392 62.122595 25.975932 63.315524 26.337891 63.447266 C 26.699849 63.579007 27.554269 62.738281 27.939453 62.738281 C 28.324643 62.738281 29.177103 63.579007 29.539062 63.447266 C 29.901021 63.315524 30.015469 62.122595 30.310547 61.875 C 30.605613 61.627406 31.799593 61.724207 31.992188 61.390625 C 32.184781 61.057043 31.503428 60.07074 31.570312 59.691406 C 31.637193 59.31207 32.615714 58.617617 32.548828 58.238281 C 32.481938 57.858945 31.325407 57.540612 31.132812 57.207031 C 30.94023 56.873449 31.242331 55.712438 30.947266 55.464844 C 30.652194 55.217249 29.56313 55.717678 29.201172 55.585938 C 28.839213 55.454194 28.324643 54.369141 27.939453 54.369141 z M 69.539062 54.369141 C 69.15388 54.369141 68.641255 55.454194 68.279297 55.585938 C 67.917338 55.71768 66.828269 55.217249 66.533203 55.464844 C 66.238131 55.712437 66.538303 56.873449 66.345703 57.207031 C 66.153114 57.540613 64.998534 57.858945 64.931641 58.238281 C 64.864761 58.617617 65.841316 59.31207 65.908203 59.691406 C 65.975093 60.07074 65.295692 61.057043 65.488281 61.390625 C 65.680876 61.724207 66.87485 61.627406 67.169922 61.875 C 67.465 62.122595 67.577494 63.315524 67.939453 63.447266 C 68.301411 63.579007 69.153878 62.738281 69.539062 62.738281 C 69.924252 62.738281 70.778666 63.579007 71.140625 63.447266 C 71.502583 63.315524 71.615078 62.122595 71.910156 61.875 C 72.205222 61.627406 73.399202 61.724207 73.591797 61.390625 C 73.784392 61.057043 73.104989 60.07074 73.171875 59.691406 C 73.238765 59.31207 74.215322 58.617617 74.148438 58.238281 C 74.081558 57.858945 72.925017 57.540612 72.732422 57.207031 C 72.53984 56.873449 72.84194 55.712438 72.546875 55.464844 C 72.251803 55.217249 71.162739 55.717678 70.800781 55.585938 C 70.438822 55.454194 69.924252 54.369141 69.539062 54.369141 z M 31.566406 65.603516 L 34.082031 70.669922 L 31.814453 70.669922 L 30.263672 72.21875 L 28.869141 66.089844 C 29.57572 66.520917 30.388051 67.120222 30.820312 66.962891 C 31.150181 66.842827 31.365702 66.234238 31.566406 65.603516 z M 73.166016 65.603516 L 75.681641 70.669922 L 73.414062 70.669922 L 71.863281 72.21875 L 70.470703 66.089844 C 71.177282 66.520917 71.989612 67.120222 72.421875 66.962891 C 72.751744 66.842827 72.965312 66.234238 73.166016 65.603516 z M 24.314453 65.605469 C 24.515029 66.2357 24.728968 66.842917 25.058594 66.962891 C 25.490754 67.120183 26.301349 66.520902 27.007812 66.089844 L 25.617188 72.21875 L 24.066406 70.669922 L 21.798828 70.669922 L 24.314453 65.605469 z M 65.914062 65.605469 C 66.114638 66.2357 66.328577 66.842917 66.658203 66.962891 C 67.090363 67.120183 67.902911 66.520902 68.609375 66.089844 L 67.216797 72.21875 L 65.666016 70.669922 L 63.398438 70.669922 L 65.914062 65.605469 z " />
  </g>
</svg>
