<?xml version="1.0" encoding="UTF-8" standalone="no"?>
<svg
   xmlns:dc="http://purl.org/dc/elements/1.1/"
   xmlns:cc="http://creativecommons.org/ns#"
   xmlns:rdf="http://www.w3.org/1999/02/22-rdf-syntax-ns#"
   xmlns:svg="http://www.w3.org/2000/svg"
   xmlns="http://www.w3.org/2000/svg"
   xmlns:sodipodi="http://sodipodi.sourceforge.net/DTD/sodipodi-0.dtd"
   xmlns:inkscape="http://www.inkscape.org/namespaces/inkscape"
   width="80"
   height="80"
   viewBox="0 0 80 80.000003"
   version="1.1"
   id="svg8"
   inkscape:version="1.0.1 (3bc2e813f5, 2020-09-07)"
   sodipodi:docname="election.svg">
  <defs
     id="defs2" />
  <sodipodi:namedview
     id="base"
     pagecolor="#ffffff"
     bordercolor="#666666"
     borderopacity="1.0"
     inkscape:pageopacity="0.0"
     inkscape:pageshadow="2"
     inkscape:zoom="3.959798"
     inkscape:cx="11.072421"
     inkscape:cy="14.597169"
     inkscape:document-units="px"
     inkscape:current-layer="layer1"
     inkscape:document-rotation="0"
     showgrid="true"
     units="px"
     inkscape:snap-object-midpoints="true"
     inkscape:snap-global="true"
     inkscape:window-width="1920"
     inkscape:window-height="1001"
     inkscape:window-x="-9"
     inkscape:window-y="-9"
     inkscape:window-maximized="1">
    <inkscape:grid
       type="xygrid"
       id="grid833" />
  </sodipodi:namedview>
  <metadata
     id="metadata5">
    <rdf:RDF>
      <cc:Work
         rdf:about="">
        <dc:format>image/svg+xml</dc:format>
        <dc:type
           rdf:resource="http://purl.org/dc/dcmitype/StillImage" />
        <dc:title></dc:title>
      </cc:Work>
    </rdf:RDF>
  </metadata>
  <g
     inkscape:label="Ebene 1"
     inkscape:groupmode="layer"
     id="layer1">
    <path
       id="rect845"
       style="opacity:1;fill:#ffffff;stroke:none;stroke-width:1;stroke-linejoin:round;stroke-miterlimit:4;stroke-dasharray:none;paint-order:markers fill stroke"
       d="m 41,0 -13,26 8,4 H 51 L 63,6 51,0 Z M 13,16 c -2,0 -2.128636,0.257271 -3,2 L 1,36 v 6 c 0,2 1,3 3,3 h 2 v 29 c 0,2.77 2.23,5 5,5 h 58 c 2.77,0 5.190582,-2.236564 5,-5 V 45 h 2 c 0,0 3,-1 3,-3 V 36 L 70,18 c -0.871364,-1.742729 -1,-2 -3,-2 h -7 l -5,10 h 2 l 3,6 H 20 l 3,-6 h 3 L 31,16 Z M 30.806641,42.978516 40,52.171875 49.193359,42.978516 52.021484,45.806641 42.828125,55 52.021484,64.193359 49.193359,67.021484 40,57.828125 30.806641,67.021484 27.978516,64.193359 37.171875,55 27.978516,45.806641 Z M 39.898438,43 c 0.06836,-5.84e-4 0.13672,-5.84e-4 0.205078,0 1.754817,0.01533 3.484917,0.41535 5.068359,1.171875 l -1.519531,1.519531 c -2.34778,-0.921125 -4.956908,-0.921125 -7.304688,0 L 34.830078,44.171875 C 36.41352,43.41535 38.143621,43.015326 39.898438,43 Z m -10.726563,6.828125 1.519531,1.519531 c -0.921125,2.34778 -0.921125,4.956908 0,7.304688 l -1.519531,1.517578 c -1.561668,-3.2704 -1.561668,-7.071397 0,-10.341797 z m 21.65625,0.002 c 1.561668,3.2704 1.561668,7.071397 0,10.341797 l -1.519531,-1.519531 c 0.921125,-2.34778 0.921125,-4.956908 0,-7.304688 z M 36.347656,64.308594 c 2.34778,0.921125 4.956908,0.921125 7.304688,0 l 1.517578,1.519531 c -3.2704,1.561668 -7.071397,1.561668 -10.341797,0 z"
       sodipodi:nodetypes="cccccccsscsscsssscsscssccccccccsccccccccccccccccccccccccccccccccccc" />
  </g>
</svg>
