<?xml version="1.0" encoding="UTF-8" standalone="no"?>
<svg
   xmlns:dc="http://purl.org/dc/elements/1.1/"
   xmlns:cc="http://creativecommons.org/ns#"
   xmlns:rdf="http://www.w3.org/1999/02/22-rdf-syntax-ns#"
   xmlns:svg="http://www.w3.org/2000/svg"
   xmlns="http://www.w3.org/2000/svg"
   xmlns:sodipodi="http://sodipodi.sourceforge.net/DTD/sodipodi-0.dtd"
   xmlns:inkscape="http://www.inkscape.org/namespaces/inkscape"
   width="80"
   height="80"
   viewBox="0 0 80 80.000003"
   version="1.1"
   id="svg8"
   inkscape:version="1.0.1 (3bc2e813f5, 2020-09-07)"
   sodipodi:docname="email.svg">
  <defs
     id="defs2" />
  <sodipodi:namedview
     id="base"
     pagecolor="#ffffff"
     bordercolor="#666666"
     borderopacity="1.0"
     inkscape:pageopacity="0.0"
     inkscape:pageshadow="2"
     inkscape:zoom="11.2"
     inkscape:cx="37.346805"
     inkscape:cy="13.496492"
     inkscape:document-units="px"
     inkscape:current-layer="layer1"
     inkscape:document-rotation="0"
     showgrid="true"
     units="px"
     inkscape:snap-object-midpoints="true"
     inkscape:snap-global="true"
     inkscape:window-width="1920"
     inkscape:window-height="1001"
     inkscape:window-x="-9"
     inkscape:window-y="-9"
     inkscape:window-maximized="1"
     inkscape:snap-smooth-nodes="true"
     showguides="false"
     inkscape:snap-page="true">
    <inkscape:grid
       type="xygrid"
       id="grid833" />
  </sodipodi:namedview>
  <metadata
     id="metadata5">
    <rdf:RDF>
      <cc:Work
         rdf:about="">
        <dc:format>image/svg+xml</dc:format>
        <dc:type
           rdf:resource="http://purl.org/dc/dcmitype/StillImage" />
        <dc:title></dc:title>
      </cc:Work>
    </rdf:RDF>
  </metadata>
  <g
     inkscape:label="Ebene 1"
     inkscape:groupmode="layer"
     id="layer1">
    <path
       id="rect871"
       style="fill:#ffffff;stroke:none;stroke-width:15;stroke-linejoin:round;stroke-miterlimit:4;stroke-dasharray:none;paint-order:markers fill stroke"
       d="M 10,15 C 9.6459145,15 9.3016581,15.03807 8.96875,15.107422 L 40,41.707031 71.03125,15.107422 C 70.698342,15.038075 70.354085,15 70,15 Z M 5.25,18.507812 C 5.101866,18.981685 5,19.47605 5,20 v 40 c 0,0.565051 0.1139132,1.097751 0.2851562,1.603516 L 28.486328,41.716797 32.326172,45.007812 9.1015625,64.916016 C 9.3934616,64.968674 9.6924772,65 10,65 h 60 c 0.307523,0 0.606538,-0.03133 0.898438,-0.08398 L 47.673828,45.007812 51.513672,41.716797 74.714844,61.603516 C 74.886087,61.097751 75,60.565051 75,60 V 20 c 0,-0.52395 -0.101866,-1.018315 -0.25,-1.492188 L 40,48.292969 Z" />
  </g>
</svg>
