<?xml version="1.0" encoding="UTF-8" standalone="no"?>
<svg
   xmlns:dc="http://purl.org/dc/elements/1.1/"
   xmlns:cc="http://creativecommons.org/ns#"
   xmlns:rdf="http://www.w3.org/1999/02/22-rdf-syntax-ns#"
   xmlns:svg="http://www.w3.org/2000/svg"
   xmlns="http://www.w3.org/2000/svg"
   xmlns:sodipodi="http://sodipodi.sourceforge.net/DTD/sodipodi-0.dtd"
   xmlns:inkscape="http://www.inkscape.org/namespaces/inkscape"
   width="80"
   height="80"
   viewBox="0 0 80 80.000003"
   version="1.1"
   id="svg8"
   inkscape:version="1.0.1 (3bc2e813f5, 2020-09-07)"
   sodipodi:docname="login.svg">
  <defs
     id="defs2" />
  <sodipodi:namedview
     id="base"
     pagecolor="#ffffff"
     bordercolor="#666666"
     borderopacity="1.0"
     inkscape:pageopacity="0.0"
     inkscape:pageshadow="2"
     inkscape:zoom="5.6"
     inkscape:cx="9.7218036"
     inkscape:cy="59.200076"
     inkscape:document-units="px"
     inkscape:current-layer="layer1"
     inkscape:document-rotation="0"
     showgrid="true"
     units="px"
     inkscape:snap-object-midpoints="true"
     inkscape:snap-global="false"
     inkscape:window-width="1920"
     inkscape:window-height="1001"
     inkscape:window-x="-9"
     inkscape:window-y="-9"
     inkscape:window-maximized="1"
     inkscape:snap-smooth-nodes="true"
     showguides="false"
     inkscape:snap-page="true">
    <inkscape:grid
       type="xygrid"
       id="grid833" />
  </sodipodi:namedview>
  <metadata
     id="metadata5">
    <rdf:RDF>
      <cc:Work
         rdf:about="">
        <dc:format>image/svg+xml</dc:format>
        <dc:type
           rdf:resource="http://purl.org/dc/dcmitype/StillImage" />
        <dc:title></dc:title>
      </cc:Work>
    </rdf:RDF>
  </metadata>
  <g
     inkscape:label="Ebene 1"
     inkscape:groupmode="layer"
     id="layer1">
    <path
       id="rect2677"
       style="opacity:1;fill:#ffffff;fill-opacity:1;stroke:none;stroke-width:10;stroke-linejoin:round;stroke-miterlimit:4;stroke-dasharray:none;paint-order:markers fill stroke"
       d="M 39.443359 0 C 31.441294 0 25 6.69 25 15 L 25 30 L 15 30 C 9.46 30 5 34.46 5 40 L 5 70 C 5 75.54 9.46 80 15 80 L 65 80 C 70.54 80 75 75.54 75 70 L 75 40 C 75 34.46 70.54 30 65 30 L 55 30 L 55 15 C 55 6.69 48.558706 0 40.556641 0 L 39.443359 0 z M 39.632812 5 L 40.367188 5 C 45.704183 5 50 9.46 50 15 L 50 30 L 30 30 L 30 15 C 30 9.46 34.295818 5 39.632812 5 z M 40 38.105469 A 7.6791077 7.6791077 0 0 1 47.679688 45.785156 A 7.6791077 7.6791077 0 0 1 43.537109 52.599609 L 44.607422 71.894531 L 35.392578 71.894531 L 36.462891 52.599609 A 7.6791077 7.6791077 0 0 1 32.320312 45.785156 A 7.6791077 7.6791077 0 0 1 40 38.105469 z " />
  </g>
</svg>
