<?xml version="1.0" encoding="UTF-8" standalone="no"?>
<svg
   xmlns:dc="http://purl.org/dc/elements/1.1/"
   xmlns:cc="http://creativecommons.org/ns#"
   xmlns:rdf="http://www.w3.org/1999/02/22-rdf-syntax-ns#"
   xmlns:svg="http://www.w3.org/2000/svg"
   xmlns="http://www.w3.org/2000/svg"
   xmlns:sodipodi="http://sodipodi.sourceforge.net/DTD/sodipodi-0.dtd"
   xmlns:inkscape="http://www.inkscape.org/namespaces/inkscape"
   width="80"
   height="80"
   viewBox="0 0 80 80.000003"
   version="1.1"
   id="svg8"
   inkscape:version="1.0.1 (3bc2e813f5, 2020-09-07)"
   sodipodi:docname="vote.svg">
  <defs
     id="defs2" />
  <sodipodi:namedview
     id="base"
     pagecolor="#ffffff"
     bordercolor="#666666"
     borderopacity="1.0"
     inkscape:pageopacity="0.0"
     inkscape:pageshadow="2"
     inkscape:zoom="2.8"
     inkscape:cx="-9.5164817"
     inkscape:cy="40.381745"
     inkscape:document-units="px"
     inkscape:current-layer="layer1"
     inkscape:document-rotation="0"
     showgrid="false"
     units="px"
     inkscape:snap-object-midpoints="true"
     inkscape:snap-global="true"
     inkscape:window-width="1920"
     inkscape:window-height="1001"
     inkscape:window-x="-9"
     inkscape:window-y="-9"
     inkscape:window-maximized="1">
    <inkscape:grid
       type="xygrid"
       id="grid833" />
  </sodipodi:namedview>
  <metadata
     id="metadata5">
    <rdf:RDF>
      <cc:Work
         rdf:about="">
        <dc:format>image/svg+xml</dc:format>
        <dc:type
           rdf:resource="http://purl.org/dc/dcmitype/StillImage" />
        <dc:title></dc:title>
      </cc:Work>
    </rdf:RDF>
  </metadata>
  <g
     inkscape:label="Ebene 1"
     inkscape:groupmode="layer"
     id="layer1">
    <path
       id="path896"
       style="color:#000000;font-style:normal;font-variant:normal;font-weight:normal;font-stretch:normal;font-size:medium;line-height:normal;font-family:sans-serif;font-variant-ligatures:normal;font-variant-position:normal;font-variant-caps:normal;font-variant-numeric:normal;font-variant-alternates:normal;font-variant-east-asian:normal;font-feature-settings:normal;font-variation-settings:normal;text-indent:0;text-align:start;text-decoration:none;text-decoration-line:none;text-decoration-style:solid;text-decoration-color:#000000;letter-spacing:normal;word-spacing:normal;text-transform:none;writing-mode:lr-tb;direction:ltr;text-orientation:mixed;dominant-baseline:auto;baseline-shift:baseline;text-anchor:start;white-space:normal;shape-padding:0;shape-margin:0;inline-size:0;clip-rule:nonzero;display:inline;overflow:visible;visibility:visible;opacity:1;isolation:auto;mix-blend-mode:normal;color-interpolation:sRGB;color-interpolation-filters:linearRGB;solid-color:#000000;solid-opacity:1;vector-effect:none;fill:#ffffff;fill-opacity:1;fill-rule:nonzero;stroke:none;stroke-width:2;stroke-linecap:butt;stroke-linejoin:round;stroke-miterlimit:4;stroke-dasharray:none;stroke-dashoffset:0;stroke-opacity:1;paint-order:markers fill stroke;color-rendering:auto;image-rendering:auto;shape-rendering:auto;text-rendering:auto;enable-background:accumulate;stop-color:#000000;stop-opacity:1"
       d="M 12 2.5136719 C 10.724897 2.5136719 9.449982 2.8358491 8.3085938 3.4804688 L 9.7910156 4.9628906 C 11.197237 4.3430296 12.802762 4.3430296 14.208984 4.9628906 L 15.691406 3.4804688 C 14.550018 2.8358491 13.275103 2.5136719 12 2.5136719 z M 7.0507812 3.6367188 L 5.6367188 5.0507812 L 10.585938 10 L 5.6367188 14.949219 L 7.0507812 16.363281 L 12 11.414062 L 16.949219 16.363281 L 18.363281 14.949219 L 13.414062 10 L 18.363281 5.0507812 L 16.949219 3.6367188 L 12 8.5859375 L 7.0507812 3.6367188 z M 5.4804688 6.3085938 C 4.1912293 8.5913706 4.1912293 11.40863 5.4804688 13.691406 L 6.9628906 12.208984 C 6.3430295 10.802762 6.3430295 9.1972374 6.9628906 7.7910156 L 5.4804688 6.3085938 z M 18.519531 6.3085938 L 17.037109 7.7910156 C 17.65697 9.1972374 17.65697 10.802762 17.037109 12.208984 L 18.519531 13.691406 C 19.80877 11.40863 19.80877 8.5913706 18.519531 6.3085938 z M 9.7910156 15.037109 L 8.3085938 16.519531 C 10.59137 17.80877 13.40863 17.80877 15.691406 16.519531 L 14.208984 15.037109 C 12.802762 15.65697 11.197237 15.65697 9.7910156 15.037109 z M 1 19 L 1 21 L 79 21 L 79 19 L 1 19 z M 12 22.5 C 7.869709 22.5 4.5 25.869709 4.5 30 C 4.5 34.130291 7.869709 37.5 12 37.5 C 16.130291 37.5 19.5 34.130291 19.5 30 C 19.5 25.869709 16.130291 22.5 12 22.5 z M 12 24.5 C 15.049411 24.5 17.5 26.950589 17.5 30 C 17.5 33.049411 15.049411 35.5 12 35.5 C 8.9505892 35.5 6.5 33.049411 6.5 30 C 6.5 26.950589 8.9505892 24.5 12 24.5 z M 1 39 L 1 41 L 79 41 L 79 39 L 1 39 z M 12 42.5 C 7.869709 42.5 4.5 45.869709 4.5 50 C 4.5 54.130291 7.869709 57.5 12 57.5 C 16.130291 57.5 19.5 54.130291 19.5 50 C 19.5 45.869709 16.130291 42.5 12 42.5 z M 12 44.5 C 15.049411 44.5 17.5 46.950589 17.5 50 C 17.5 53.049411 15.049411 55.5 12 55.5 C 8.9505892 55.5 6.5 53.049411 6.5 50 C 6.5 46.950589 8.9505892 44.5 12 44.5 z M 1 59 L 1 61 L 79 61 L 79 59 L 1 59 z M 12 62.5 C 7.869709 62.5 4.5 65.869709 4.5 70 C 4.5 74.130291 7.869709 77.5 12 77.5 C 16.130291 77.5 19.5 74.130291 19.5 70 C 19.5 65.869709 16.130291 62.5 12 62.5 z M 12 64.5 C 15.049411 64.5 17.5 66.950589 17.5 70 C 17.5 73.049411 15.049411 75.5 12 75.5 C 8.9505892 75.5 6.5 73.049411 6.5 70 C 6.5 66.950589 8.9505892 64.5 12 64.5 z " />
    <path
       id="rect832-0-3"
       style="fill:#ffffff;stroke-width:9.99997;stroke-linejoin:round;paint-order:markers fill stroke;fill-opacity:0.60000002"
       d="M 26 4 C 25.446 4 25 4.446 25 5 C 25 5.554 25.446 6 26 6 L 64 6 C 64.554 6 65 5.554 65 5 C 65 4.446 64.554 4 64 4 L 26 4 z M 26 8 C 25.446 8 25 8.446 25 9 C 25 9.554 25.446 10 26 10 L 53 10 C 53.554 10 54 9.554 54 9 C 54 8.446 53.554 8 53 8 L 26 8 z M 26 12 C 25.446 12 25 12.446 25 13 C 25 13.554 25.446 14 26 14 L 57 14 C 57.554 14 58 13.554 58 13 C 58 12.446 57.554 12 57 12 L 26 12 z M 26 24 C 25.446 24 25 24.446 25 25 C 25 25.554 25.446 26 26 26 L 64 26 C 64.554 26 65 25.554 65 25 C 65 24.446 64.554 24 64 24 L 26 24 z M 26 28 C 25.446 28 25 28.446 25 29 C 25 29.554 25.446 30 26 30 L 53 30 C 53.554 30 54 29.554 54 29 C 54 28.446 53.554 28 53 28 L 26 28 z M 26 32 C 25.446 32 25 32.446 25 33 C 25 33.554 25.446 34 26 34 L 57 34 C 57.554 34 58 33.554 58 33 C 58 32.446 57.554 32 57 32 L 26 32 z M 26 44 C 25.446 44 25 44.446 25 45 C 25 45.554 25.446 46 26 46 L 64 46 C 64.554 46 65 45.554 65 45 C 65 44.446 64.554 44 64 44 L 26 44 z M 26 48 C 25.446 48 25 48.446 25 49 C 25 49.554 25.446 50 26 50 L 53 50 C 53.554 50 54 49.554 54 49 C 54 48.446 53.554 48 53 48 L 26 48 z M 26 52 C 25.446 52 25 52.446 25 53 C 25 53.554 25.446 54 26 54 L 57 54 C 57.554 54 58 53.554 58 53 C 58 52.446 57.554 52 57 52 L 26 52 z M 26 64 C 25.446 64 25 64.446 25 65 C 25 65.554 25.446 66 26 66 L 64 66 C 64.554 66 65 65.554 65 65 C 65 64.446 64.554 64 64 64 L 26 64 z M 26 68 C 25.446 68 25 68.446 25 69 C 25 69.554 25.446 70 26 70 L 53 70 C 53.554 70 54 69.554 54 69 C 54 68.446 53.554 68 53 68 L 26 68 z M 26 72 C 25.446 72 25 72.446 25 73 C 25 73.554 25.446 74 26 74 L 57 74 C 57.554 74 58 73.554 58 73 C 58 72.446 57.554 72 57 72 L 26 72 z " />
  </g>
</svg>
